<?xml version='1.0' encoding='utf-8'?>
<svg xmlns="http://www.w3.org/2000/svg" viewBox="0 0 3000 2882.56"><defs><style>.cls-1{fill:#d7a580;}.cls-2{fill:#161616;}.cls-3{fill:#c19472;}.cls-4{fill:#c29574;}.cls-5{fill:#c29573;}.cls-6{fill:#c49472;}.cls-7{fill:#fefefe;}.cls-8{fill:#be9270;}.cls-9{fill:#c09472;}.cls-10{fill:#c69877;}.cls-11{fill:#ac8669;}.cls-12{fill:#9a755c;}.cls-13{fill:#8d7059;}.cls-14{fill:#38322b;}.cls-15{fill:#625142;}.cls-16{fill:#554a3c;}.cls-17{fill:#8d735b;}.cls-18{fill:#392e28;}.cls-19{fill:#ab8367;}.cls-20{fill:#332824;}.cls-21{fill:#634b3e;}.cls-22{fill:#5a4438;}.cls-23{fill:#896752;}.cls-24{fill:#eedbcc;}</style></defs><title>Asset 22</title><g id="Layer_2" data-name="Layer 2"><g id="Layer_1-2" data-name="Layer 1"><path class="cls-1" d="M1539.26,130.84q0,117.56.1,235.12,0,128,.08,256v17.4c9.84-11.65,18.22-21.55,26.57-31.49,2.23-2.65,4.53-5.28,6.49-8.14,16-23.4,39.1-28.74,65.34-25.54,13.47,1.65,23.13,9.36,27.49,22.06,7.55,22,15.18,44.4,14,68-2.7,52,12,99.76,32.36,146.59,10.87,25,17.77,51.86,32.13,75.08,20.41,33,36,68.43,53.94,102.68a475.9,475.9,0,0,1,35.37,88.13,149.36,149.36,0,0,0,15.43,35.26c11.69,19.57,22.36,39.76,33.12,59.87,5,9.41,11.24,17.65,20.49,23,28.94,16.86,41.51,44.21,48.4,75.13,3.88,17.44,5.31,35.34,6,53.05,1.85,50,5.56,99.92,9.75,149.74,4.52,53.75,11.68,107.41,26.7,159.36,11.83,40.9,25.23,81.5,48.45,117.87,1.86,2.92,3.44,6.16,5.82,8.6,22.6,23.22,39.6,50.76,59.43,76.12,9.44,12.08,20,23.36,30.61,34.44,26.46,27.6,49.3,58.26,74.33,87,30.62,35.19,59.31,71.85,88,108.51,8.86,11.3,17,23.2,25.34,34.88,30.38,42.38,66.57,80,99.37,120.33,16.56,20.37,32.28,41.42,48.49,62.08,5.2,6.63,10.18,13.56,16.21,19.37,15.85,15.3,25.85,35.22,40.46,51.25,25.14,27.56,43.27,60.29,68.07,88.16,27,30.29,50,63.92,77.1,94.21,20.8,23.25,40.77,47.25,61.62,70.46,30.82,34.3,64.38,66,96.19,99.3,22.55,23.63,43,49.27,64.48,73.89,18.37,21.07,34.93,44.21,59.3,59.95,13.07,8.44,22.32,22.23,37.66,28.34,6.18,2.46,6.91,9.18,5.45,15.54H2731.29c-5.09-2.9-10.65-1.46-16-1.46q-143.82-.17-287.66-.08-155.58,0-311.14,0c-2.51,0-5,0-7.53,0-10.53-1.92-15.72-9.89-19.65-18.55-16.25-35.8-37.22-68.83-59.09-101.32-49-72.77-97-146.13-140.78-222.2-19.26-33.43-43.82-63.59-63.94-96.67-28.11-46.22-61-89.17-94-132-40.55-52.74-84.36-101.72-138.6-142-50.09-37.18-100.61-74.09-149-113.44a998.78,998.78,0,0,1-132.55-129.64c-48.26-57-90.21-118.13-133.45-178.57-7.21-10.08-13.31-20.91-20.14-31.25-2.68-4.07-5.74-8.45-1.86-13.62a14.21,14.21,0,0,1,4.58-2.14c7.39-1.59,14.86-1.14,22.29-1.15,65.51,0,131-.94,196.53.36,33.78.67,66.19-2.73,97.29-16.08,8.89.15,9.83,6.63,10.42,13.31.69,7.77-.66,15.79,4.15,23.7,4.38-24.39,26.28-43.78,18.47-71.47-7.33-27.3-7.64-55.43-9.91-83.31q0-4.76,0-9.5c0-2.25,0-4.52,0-6.78,0-3.25-.12-6.53.08-8.43-1.28,1.7.3,5.14-.18,8.3,0,2.34,0,4.67,0,7,0,3.37,0,6.72,0,10.08.49,7.61,2.48,15.16,1.23,22.8-.59,3.65.14,9.75-7.09,6.11-2.91-4.36-3.49-9.37-3.22-14.31,2.14-39.21-2.87-78.22-3-117.34-.11-38.67-2.09-77.41,2.78-116,2.32-18.32,0-36.67,0-55q.06-570.16.12-1140.32c0-9.79-1.86-19.94,3.44-29.17a3.62,3.62,0,0,1,5.16-.53c4.48,6.07,3.88,13.19,3.88,20.08q.16,279.23.06,558.45c0,10.46-1.64,20.74-3.28,31-.16,3.64-.09,7.31-.11,11,0,3.48,0,7,0,10.44,0,4.26,0,8.53,0,12.8q0,9.07,0,18.13,0,27.81,0,55.59,0,5.12,0,10.23c0,2.52,0,5.06,0,7.59s0,5.18,0,7.78,0,5.44.15,8.17a280.9,280.9,0,0,1,3.23,44.4q-.06,168.86,0,337.71c0,13.93-1.58,27.66-3.4,41.38,0,3.23,0,6.49,0,9.7a8.08,8.08,0,0,0,.07,2.87c.67,1.57-1.38,3.08.07,4.54.2-1.76-.2-3.52,0-5.32,0-2.85,0-5.68,0-8.51,2.79-39.45,20-74.45,33.78-110.53,10.18-30.52,17.89-61.84,29.65-91.85,3.68-9.4,1.43-18.36-1.83-27.47-8.68-24.25-18.81-47.93-27.85-72-10-42.74-30.43-82.69-33.73-127.18,0-2.34,0-4.68,0-7s0-4.7,0-7,0-4.81,0-7.22c0-3.35,0-6.68,0-10q0-27.71,0-55.39,0-9,0-18.06c0-4.22,0-8.45,0-12.68,0-3.43,0-6.85,0-10.27s0-7.12.07-10.69c.52-22.78,12-41.69,22.17-60.86,7.46-14,10.49-28.35,10.46-44.18q-.42-235.79,0-471.57C1532.48,147.3,1528.47,136.82,1539.26,130.84Z"/><path class="cls-1" d="M202.63,2188c4.63-.18,5.46-3.29,5.65-7.1,1.59-31.65,12.12-60.95,23.25-90.19,5.73-15,14-28.46,23.34-41.28,10.49-14.45,26.05-21.81,43-24.08a207,207,0,0,1,56.42.16c23.18,3.34,40.16,18.34,54.31,36.23,10.06,12.74,19.54,25.93,30.54,40.61,6-16.7,7.5-32.26,10.51-47.45,4.21-21.31,7.42-42.66,15.84-63.15,15-36.51,43-52.92,80.44-56,12.81-1.06,25.78-.49,38.66-.18,14.94.37,27.67,7,39.7,15.19,29.23,19.84,45.09,48.56,51.39,82.26,7.54,40.31,15,80.6,16.29,122,.77,25.72,1.44,51.49,2.45,77.23.1,2.47,0,5,.16,7.43.87,17,12.42,23,27.14,14.19a37.36,37.36,0,0,0,13.89-15.2c11.81-22.82,23.48-45.45,31.52-70.27,17.7-54.64,38.05-108.53,64.39-159.65a1161.89,1161.89,0,0,0,75.94-185.29c6.65-21.23,11.31-43.07,16.81-64.65a394.79,394.79,0,0,1,14.43-45.26c3.62-9.36,3-10.29-6.75-10.37-23.81-.2-47.62,0-71.43-.13-3.42,0-6.85-.63-10.28-1,3.06-8.13,10.35-5.85,16.12-6,21.12-.42,42.27-.73,63.36.07,11.35.43,17.55-3.31,19.39-14.76,1.33-8.22,3.88-16.23,6-24.32,10.71-35.85,24.48-70.4,46-101.24,29.81-42.78,102.95-48.09,138.08-10.7,16.17,17.2,18.93,38.78,20.6,60.69a275.25,275.25,0,0,1,.13,32.75c-.5,11.53,4.32,15.79,15.81,15.7,45.16-.34,90.33-.15,135.5-.14,29.28,0,58.57-.14,87.85.11,6.71,0,14.14-1.48,19.3,5-5.39,9.41-14.73,6.53-22.57,6.57-67.76.29-135.53.16-203.29.16H1188c-31.76,0-35.59,4.39-32,36.47-.36.5-.74,1-1.12,1.46-14.09,66.47-36.92,130.51-54.38,196-14.42,54.1-26.71,108.76-44.87,161.82a561.28,561.28,0,0,1-47.81,103.85c-11.17,18.92-16,40.5-23.92,60.82-31.61,81.6-53.93,165.9-72.29,251.31a24.7,24.7,0,0,1-3,6,3.65,3.65,0,0,0-.54,2.57,14.2,14.2,0,0,1,1.15-2.81c37.67-39.48,68.3-85,106.88-123.74,46.74-46.93,104.66-67.23,168.94-70.2,33.92-1.57,68.13-3.3,102,6.54,38.46,11.19,65.17,34.18,82.19,69.82,5.9,12.34,4.9,22.59-5.2,32.28a140.67,140.67,0,0,1-40.41,27.49c-18.57,8.24-36.41,18.22-56,24.21-24.47,7.51-45.58,21.54-67.54,34.1-24.25,13.86-39.94,36.09-55,57.72-43.68,62.63-89.12,124.18-127.63,190.25-24.4,41.87-38.64,87.92-51.85,134.25-1.62,5.68-2.14,11.81-6.54,16.38H0c1.9-20.74,6.8-41,10.13-61.48.64-3.91,1.57-7.82,1.68-11.74.93-34.71,3.57-69.5,2-104.1s.34-69.45-6.91-103.72c-1.62-7.64-1-15.83-.89-23.76,1-90.77,1.67-181.55,3.5-272.3.51-25.15,2.12-50.47,8.05-75.22,1.63-6.76,3.38-13.44,5.6-20,13.46-39.7,31.37-52,79-57.63,32.3-3.83,60.15,8.32,85.67,27-6.15,5.59-12.13-.13-19.18-.43-2.42,16.41.91,32.44,4.21,48,8.08,38.11,6.12,77,9.85,115.37a123.35,123.35,0,0,1-9.89,62.15c26.16-33.59,29.8-74.42,28.61-116.62-.58-20.78-.66-41.57,2.4-62.32C205.69,2213.28,206.68,2200.44,202.63,2188Z"/><path class="cls-2" d="M958.62,1658.37c-2.8,12-5.88,23.87-8.26,35.91-1.1,5.52-3.36,6.81-9,6.71-27.59-.51-55.18-.42-82.77-.46-2.85,0-5.94-.84-8.41,1.46-21.21,3.26-42.26,3.6-63-3.44-37-12.57-60.95-39-77.62-73-2.83-5.8-3.29-12.27-3.27-18.81.15-41,.1-82,.06-123.06,0-5.43-.33-10.85-.51-16.27-7.84-10.52-3-22.57-4.14-33.89a72.05,72.05,0,0,1,4.72-23.19c10.52-29.29,10.25-58.13-2.43-86.72a27.47,27.47,0,0,1-1.84-7.18c-.27-7.66-1.3-15.35.82-22.93a19.68,19.68,0,0,1,2.8-4.31c1-28.89,1-57.79,0-86.68-7.59-10.58-3.13-22.54-3.9-33.89.46-7,2.88-13.43,5.58-19.75,13.31-31.19,13.11-62-2.37-92.42a28.49,28.49,0,0,1-3.09-9.8c0-8.8-2.43-17.94,3.69-25.86,1.2-28.84.89-57.69.17-86.54-6.78-8.05-4.14-17.77-4.58-26.88-.55-11.28.55-22.56.39-33.84,5.73-30.68,8.57-61.37.14-92.09-.08-15.34-1-30.66-.61-46,.15-6.44,0-13,4.59-18.28.19-5.44.54-10.88.54-16.33q0-267.3,0-534.59c0-13.39-.09-26.82-1.09-40.16C700.36,60.69,752.14.25,824.76.27q287.37.09,574.76,0c12.38,0,24.73-1.1,37.15.79,62.25,9.46,104.25,59.2,102.86,122.26,0,2.49-.18,5-.27,7.46-3.52,4.85-2.45,10.47-2.45,15.81q-.06,246,.16,492c0,8.17-1,15.59-5,22.74-3.63,6.47-6.65,13.28-10.1,19.85-9,17.14-16.85,34.73-20.91,53.79-.79,1.38-1.56,1.43-2.29,0-.15-6.44-.45-12.89-.45-19.33q0-290.39,0-580.75c0-4.46-.41-8.91-.62-13.36a39.91,39.91,0,0,1-6.49-11.65c-2.33-6-3.76-12.4-6.61-18.18-12.83-26-32.71-42.19-62.72-42.85-24.8-.54-49.63,0-74.44-.15-10.48-.05-16,3.37-17.68,14.92-4.43,31.05-18.28,42.9-49.48,44.46-3.47.18-6.94.17-10.41.17q-142.18,0-284.37,0a159.88,159.88,0,0,1-29.62-2.49c-22.69-4.26-34.55-16-39.07-38.94-3.54-17.93-3.53-18-21.87-18.12-21.34-.11-42.69-.37-64,.07-43.38.89-75.58,33.67-75.59,76.92q-.06,725.8,0,1451.6c0,39.45,22.72,66.85,61.78,73.39,39.41,6.6,79.26,1.68,118.88,3.13C943.68,1654.09,952,1652.38,958.62,1658.37Z"/><path class="cls-1" d="M705.76,782.7c9.68,29.8,6.35,59.59,0,89.39-8.51,29-25.33,49.67-56.27,56.22-36.52-1-71.21-8.47-103.86-25.85-17-9-26.5-22.73-29.65-40.22-3.72-20.75-1.28-41.48,9.48-60.37A52.71,52.71,0,0,1,541,784.23c17.48-12.26,35.58-23,56.18-29.49,26.38-8.29,52.48-17.46,78.71-26.25C694.66,741.69,701.79,761.32,705.76,782.7Z"/><path class="cls-1" d="M705.68,1047.79c1.65,3.57,3.24,7.17,4.94,10.72,12.72,26.68,15.06,54,4.53,81.9-3.31,8.79-7.45,17.27-9.37,26.54-5.2,17.77-15.43,31.35-32.58,39.18-31,12.69-63.25,9.11-95.32,7.42-8.21-.43-14.92-4.77-19.62-11.93-2.45-3.72-5.53-7-8.27-10.53-19.77-25.42-22.57-50.5-5.84-80.36,14.17-25.29,34.28-46.36,56.34-64.9,23.37-19.64,51.16-27.63,81.82-24.36C693.9,1026.87,701.18,1036.1,705.68,1047.79Z"/><path class="cls-1" d="M705.79,1315.86c6.92,16.92,13.49,33.79,12.77,52.73-.44,11.43-1.39,22.47-5.06,33.42-3.27,9.78-5.22,20-7.74,30-4.23,16.48-13.14,29-29.55,35.37-22.3,1.85-43.28-4-63.39-12.46-19.24-8.14-28-27.26-40.69-42.16-7.34-8.62-6.29-19.27-6.67-29.69-1.17-31.9,18.81-51.88,39.77-71.19,7.26-6.68,15.79-11.83,24.67-16.35a56.89,56.89,0,0,1,28.47-6.64c15.82.55,31.67.2,47.5.23,0,1,0,1.93,0,2.89-5.36,3.13-9.75,6.43-4.25,13.22C704.08,1308.25,703.62,1312.62,705.79,1315.86Z"/><path class="cls-3" d="M202.63,2188c7,5.71,8.58,11.62,7.12,21.58-2.06,14-4.3,28.28-4.23,42.64.1,19.35-.54,38.71.15,58,.77,21.64-4.08,42.12-10.33,62.52-5.5,18-18.23,31.23-28.88,46.1-1.37-8,2.43-14.77,4.88-21.58,8.79-24.42,9.46-49.19,5.1-74.5-1.16-6.77-.92-13.86-.62-20.77,1.1-25.87-3.9-51-7.87-76.37-2.65-17-6.42-34.05-3.33-52.39,8.47-.85,14.58,8.2,23.23,6.34Z"/><path class="cls-4" d="M649.46,928.31c.68-.69,1.24-1.74,2.07-2,27.11-9,41.85-30.42,54.2-54.21,1.13,20.71.8,41.42.2,62.13C687,933.72,668.26,930.51,649.46,928.31Z"/><path class="cls-5" d="M705.76,782.7c-6.61-12.39-10.56-26-18.28-38-3.63-5.66-10.93-8.64-11.62-16.2,8.91-6.66,19.9-7.85,30-11.38C706.61,739,706.81,760.84,705.76,782.7Z"/><path class="cls-5" d="M673.2,1206.13c13-11.32,23.44-24.69,32.58-39.18a226.46,226.46,0,0,1,.07,35.52C694.72,1201.51,684.08,1204.86,673.2,1206.13Z"/><path class="cls-5" d="M676.21,1467.41c11.68-10.26,22-21.66,29.55-35.37a238.08,238.08,0,0,1,.18,35.33C696,1468,686.12,1469.11,676.21,1467.41Z"/><path class="cls-6" d="M705.68,1047.79l-23.37-26.32,23.45-.72A124.71,124.71,0,0,1,705.68,1047.79Z"/><path class="cls-7" d="M958.62,1658.37c-39.7-.24-79.4-.39-119.1-.78-18.54-.18-36.43-3-52.63-13.19-24-15.09-38.84-35.64-37.55-64.76,2.58-58.51,2.07-117,2.06-175.55q0-609-.15-1218c0-18.84.78-37.73-1.32-56.51-4.13-37,15.47-59.69,45.26-76.57,12.88-7.31,26.52-10.09,41.34-9.65,24.3.72,48.63.41,72.94.66,10.36.11,10.55.42,11.09,11,.15,3-.07,6,.23,8.92,2.23,22.25,16.14,36.17,38.54,37.88,11.86.91,23.79,1.09,35.7,1.21,26.78.29,53.6.68,80.34.23,65.5-1.09,131,1.55,196.47.13,5.45-.12,10.91-.4,16.34-.92,21.9-2.08,33.84-13.52,37-35.28.21-1.47.31-3,.41-4.45,1.36-18.53,1.36-18.47,19.38-18.59,22.83-.16,45.72.57,68.47-.88,44.84-2.88,77.46,32,82.37,69.73a13.15,13.15,0,0,1,.3,8.58c-.22,11.4-.64,22.8-.63,34.21q.18,330.51.42,661c0,160.29-.82,320.59.12,480.88.29,49-7.1,97.74-4.24,146.83,1.24,21.24-.24,42.53,3,63.8,3.64,24,.34,48.36.65,72.55.06,4.94-1,9.89.46,14.78,5.69,8.86.24,16.33-3.67,23.4-13.68,24.76-36.22,36.85-63,42.29-3.89.78-7.94.54-11-2.72q-75.12-.12-150.26-.26c-33.73-.07-67.46-.12-101.19-.33-11-.07-11-.28-11.18-11.87-.41-20.78,1-41.61-2.63-62.31-4.79-27.33-19.28-45.75-46.19-54.57-22.74-7.46-45-5.8-67,1.51-17.69,5.86-30.29,18-39.81,33.94C982.24,1594.29,968.85,1625.62,958.62,1658.37Z"/><path class="cls-2" d="M1418.16,1658.64c25-1.19,46-11.11,62.68-29.73,8.42-9.41,14.48-20.13,15-33.23,4.07-10.57,1.37-21.72,2.87-32.51.72-1.39,1.47-1.47,2.24,0,2.94,21.51,6.08,43,8.74,64.53.91,7.37,1.83,14.69,3.82,21.84.23,15.65-12.91,29.7-33.28,35.61-6.8,2.93-13.47,6.25-20.44,8.7a143.57,143.57,0,0,1-49.34,8.63c-81.82-.63-163.64-.39-245.47-.43-3,0-5.93.26-8.9.39-4.91-1.49-8.8-3-6.69-9.93a109.69,109.69,0,0,0,3.87-21.86c.67-7.43,3.74-10.06,11.35-9.88,21.79.54,43.6.37,65.39.39q88.44.08,176.87.06C1410.81,1661.18,1414.88,1661.59,1418.16,1658.64Z"/><path class="cls-2" d="M1501,869.13c6.53,41.69,25.32,80,33.55,121.24.47,2.37,1.86,4.55,2.83,6.83a855.21,855.21,0,0,1-.45,193.56c-14.08,36-28.54,71.9-36,110.09-.82,1.48-1.59,1.45-2.29-.09-.13-4-.38-7.93-.38-11.89q0-203.94,0-407.86c0-4,.3-7.92.45-11.88C1499.44,867.71,1500.21,867.78,1501,869.13Z"/><path class="cls-8" d="M1536.9,1190.76l.45-193.56c9.62,24.69,19.13,49.43,28.94,74,4,10.18,4.25,19.93.11,30.19-11.41,28.34-20.05,57.59-27.55,87.19C1538.64,1189.44,1537.57,1190.05,1536.9,1190.76Z"/><path class="cls-9" d="M1480.24,1685.11c8.67-7.25,18.53-13.06,26.13-21.63,3.63-4.09,7.7-7.81,7.15-14,4.36,6.92,3.13,14.17.78,21.2-5.92,17.71-14.5,34.49-18.66,52.83-.65,2.87-1.48,6-5.48,5.59-3-.33-3.3-3.1-4.34-5.31-3.1-6.55-2.14-13.51-2.64-20.37C1482.73,1697.29,1485.61,1690.5,1480.24,1685.11Z"/><path class="cls-10" d="M1501.09,782.62v59.74q-1.2,1.86-2.55.12,0-30,0-60C1499.46,781.33,1500.3,781.42,1501.09,782.62Z"/><path class="cls-11" d="M1501.09,782.62h-1.27l-1.25-.12q0-8.91,0-17.82c.75-1.24,1.52-1.19,2.3,0Z"/><path class="cls-12" d="M1498.58,1548.38c-.44-3.25-.62-6.47.88-9.85,2.57,3.29,1.6,6.62,1.49,9.83C1500.17,1549.53,1499.38,1549.54,1498.58,1548.38Z"/><path class="cls-13" d="M1500.88,764.66l-1.15.07-1.15,0c0-4,0-8,0-11.92.75-1.2,1.5-1.2,2.27,0C1500.85,756.72,1500.87,760.69,1500.88,764.66Z"/><path class="cls-14" d="M1498.66,734.94c.77,0,1.53,0,2.29,0l-.21,8.85c-.69,1.47-1.39,1.48-2.09,0C1498.65,740.88,1498.66,737.91,1498.66,734.94Z"/><path class="cls-15" d="M1498.65,743.85a7.7,7.7,0,0,0,2.09,0c0,3,.07,5.94.11,8.91l-1.15.1-1.14-.08Z"/><path class="cls-16" d="M1498.65,1300.76a11,11,0,0,0,2.29.09l-.18,8.78c-.69,1.64-1.38,1.56-2.07,0C1498.68,1306.67,1498.66,1303.72,1498.65,1300.76Z"/><path class="cls-17" d="M1498.69,1309.63a6.53,6.53,0,0,0,2.07,0c.28,2.33.84,4.7-1,6.71C1497.84,1314.32,1498.37,1312,1498.69,1309.63Z"/><path class="cls-18" d="M1501,1563.13h-1.12l-1.12.05c0-3,0-5.92,0-8.88h1.94Z"/><path class="cls-19" d="M1498.55,842.48a12.08,12.08,0,0,1,2.55-.12l-.21,9c-.77,1.17-1.53,1.17-2.29,0Z"/><path class="cls-20" d="M1501,869.13h-2.29v-5.91c.71-1.46,1.41-1.39,2.08,0Z"/><path class="cls-21" d="M1500.71,1554.3l-1-.06-1,0c-.06-2-.13-3.94-.19-5.91a5.27,5.27,0,0,1,2.37,0Z"/><path class="cls-22" d="M1500.76,863.25l-1,0h-1c0-2,0-3.9,0-5.85.71-1.53,1.38-1.52,2,0Z"/><path class="cls-23" d="M1500.73,857.4l-1-.08-1,0c0-2-.07-4-.1-6a8.85,8.85,0,0,1,2.3,0Q1500.8,854.41,1500.73,857.4Z"/><path class="cls-3" d="M409.09,2072.64c8.66,10.75,15.77,19,22.18,27.7,6.14,8.37,9.68,16.48,7.73,28.55-4.08,25.22-9.21,50.3-10.74,76.09-1.78,29.9-7.73,59.59-15.12,88.77-1.79,7.08-3.65,14.54-9.6,19.79-2.35,2.07-5,3.69-8,1.9-2.39-1.42-2.49-4.19-2-6.65a52.57,52.57,0,0,1,2.24-7.06c7.07-19.79,9.25-40.32,9.28-61.16.07-43.68.31-87.36-.13-131C404.79,2097.63,407,2086.34,409.09,2072.64Z"/><path class="cls-3" d="M902.51,2801.6c-6.28-12.38-6.19-25.14-6-37.94a713.64,713.64,0,0,0-5.72-101.95c-.87-6.84-.46-13.88-.18-20.81,1.11-27.16-2.76-54.46,2.73-81.5,1-4.78-.16-9.74-1.61-14.63-6.53-22,4.2-38.18,18.91-52.57,3.65-3.58,6.52-1.22,6.58,3.39.13,10.41,1.65,21.22-.58,31.15-3.93,17.55-1.08,35.42-4.88,53-3.83,17.73-4.49,36.13-7.52,54.08a105,105,0,0,0-1.75,17.62q0,67.7,0,135.41Z"/><path class="cls-5" d="M639.06,2310.79c-3.52-14.16.69-26.89,5.09-39.36,2.84-8,8.41-9.23,15.13-4.86,3.94,2.56,5.21,5.25,2.19,9.7C653.8,2287.56,645.58,2298.51,639.06,2310.79Z"/><path class="cls-24" d="M908.12,2480.2l.3,6.43C904.56,2486.25,904.53,2485.68,908.12,2480.2Z"/><path class="cls-5" d="M705.79,1315.86c-5.48-6.5-10.55-13.25-14.1-21.14,4.69-4.22,9.71-2,14.22-2.68A111.58,111.58,0,0,1,705.79,1315.86Z"/></g></g></svg>